<?xml version="1.0" standalone="no"?>
<!DOCTYPE svg PUBLIC "-//W3C//DTD SVG 20010904//EN"
 "http://www.w3.org/TR/2001/REC-SVG-20010904/DTD/svg10.dtd">
<svg version="1.0" xmlns="http://www.w3.org/2000/svg"
 width="160.000000pt" height="160.000000pt" viewBox="0 0 160.000000 160.000000"
 preserveAspectRatio="xMidYMid meet">
<metadata>
Created by potrace 1.14, written by Peter Selinger 2001-2017
</metadata>
<g transform="translate(0.000000,160.000000) scale(0.100000,-0.100000)"
fill="#000000" stroke="none">
<path d="M248 1570 c-74 -23 -108 -44 -144 -93 -43 -59 -65 -121 -68 -196 -4
-87 25 -176 88 -266 18 -26 180 -221 196 -235 3 -3 34 -39 70 -80 36 -41 67
-77 70 -80 3 -3 32 -36 65 -75 33 -38 62 -72 65 -75 3 -3 39 -43 80 -90 114
-131 131 -150 185 -203 62 -61 130 -106 215 -140 55 -22 78 -26 150 -24 134 4
235 61 305 172 35 55 62 144 59 190 -13 179 -58 264 -263 500 -53 61 -98 112
-101 115 -3 3 -68 77 -144 165 -206 236 -221 249 -260 209 -32 -31 -21 -50
113 -203 31 -35 61 -69 66 -75 6 -6 66 -76 135 -156 69 -80 127 -147 130 -150
39 -34 146 -176 175 -231 30 -58 38 -84 42 -148 5 -69 3 -83 -21 -134 -49
-102 -146 -160 -261 -156 -80 3 -174 52 -255 132 -72 70 -69 67 -260 287 -74
85 -137 157 -140 160 -3 3 -34 39 -70 80 -36 41 -67 77 -70 80 -6 6 -134 153
-178 206 -18 21 -47 67 -64 102 -27 55 -30 69 -25 122 7 80 40 145 89 178 33
21 52 26 106 26 118 1 164 -32 362 -264 30 -35 64 -74 75 -86 11 -12 43 -48
70 -80 28 -31 55 -62 60 -68 6 -6 37 -42 70 -81 33 -38 67 -77 75 -85 39 -37
115 -139 131 -175 41 -88 11 -175 -72 -209 -89 -36 -165 10 -319 194 -30 36
-60 70 -66 75 -6 6 -44 48 -84 95 -40 47 -81 94 -92 105 -10 11 -29 32 -42 46
-38 44 -72 62 -94 50 -24 -13 -33 -35 -25 -58 6 -17 66 -98 88 -118 6 -5 42
-46 81 -90 38 -44 71 -82 74 -85 3 -3 36 -41 74 -85 99 -115 163 -172 230
-205 99 -50 201 -38 281 32 88 78 106 214 42 328 -21 38 -55 89 -72 106 -5 6
-25 29 -43 52 -18 22 -45 53 -60 69 -15 16 -52 58 -82 93 -107 124 -125 145
-135 156 -6 6 -35 39 -65 74 -104 120 -205 222 -245 250 -89 60 -202 79 -297
50z"/>
</g>
</svg>
